<svg width="25" height="25" viewBox="0 0 25 25" fill="none" xmlns="http://www.w3.org/2000/svg">
<path fill-rule="evenodd" clip-rule="evenodd" d="M23.5955 7.79784C23.1925 7.76638 22.7641 7.80826 22.3104 7.9235C21.6478 8.09177 21.1084 8.37185 20.692 8.76374C20.2785 9.15088 20.0027 9.62798 19.8646 10.1951C19.7265 10.7621 19.7459 11.394 19.9228 12.0906L19.9243 12.0963C20.1012 12.7929 20.3856 13.3575 20.7776 13.7899C21.1733 14.2214 21.6514 14.509 22.2119 14.6529C22.7761 14.7957 23.4009 14.7801 24.0862 14.6061C24.2059 14.5756 24.3208 14.543 24.4307 14.508C23.6823 19.0756 20.3112 22.9919 15.5386 24.204C9.11508 25.8354 2.58531 21.9506 0.953909 15.5271C-0.67749 9.10366 3.20727 2.57388 9.63075 0.942484C15.4215 -0.528214 21.2986 2.48403 23.5955 7.79784ZM24.0248 10.2206C23.9685 10.0873 23.9006 9.97153 23.8212 9.87331C23.6889 9.70137 23.5345 9.58542 23.358 9.52544C23.1806 9.46168 22.9878 9.45624 22.7796 9.50913C22.5751 9.56105 22.4083 9.65784 22.279 9.79949C22.1526 9.93639 22.0703 10.1124 22.0323 10.3276C22.0116 10.4513 22.0088 10.585 22.0238 10.7288L24.0248 10.2206ZM22.3302 12.0233L24.535 11.4633C24.5602 11.7312 24.5762 11.9985 24.5833 12.2647C24.5684 12.3051 24.5341 12.3731 24.4803 12.4686C24.4239 12.5636 24.3361 12.6625 24.2171 12.7652C24.0972 12.8642 23.9331 12.9401 23.7249 12.993C23.4977 13.0507 23.2902 13.051 23.1024 12.9939C22.9174 12.9321 22.7574 12.8176 22.6222 12.6504C22.4955 12.4858 22.3982 12.2767 22.3302 12.0233ZM12.2192 8.72718L14.3005 16.9221L20.0477 15.4625L19.5631 13.5543L16.2238 14.4024L14.6271 8.11563L12.2192 8.72718Z" fill="#CB1B45"/>
</svg>
