<svg width="30" height="30" viewBox="0 0 30 30" fill="none" xmlns="http://www.w3.org/2000/svg">
<circle cx="14.5" cy="14.5" r="13.5" fill="white"/>
<path fill-rule="evenodd" clip-rule="evenodd" d="M25.5955 9.79784C25.1925 9.76638 24.7641 9.80826 24.3104 9.9235C23.6478 10.0918 23.1084 10.3718 22.692 10.7637C22.2785 11.1509 22.0027 11.628 21.8646 12.1951C21.7265 12.7621 21.7459 13.394 21.9228 14.0906L21.9243 14.0963C22.1012 14.7929 22.3856 15.3575 22.7776 15.7899C23.1733 16.2214 23.6514 16.509 24.2119 16.6529C24.7761 16.7957 25.4009 16.7801 26.0862 16.6061C26.2059 16.5756 26.3208 16.543 26.4307 16.508C25.6823 21.0756 22.3112 24.9919 17.5386 26.204C11.1151 27.8354 4.58531 23.9506 2.95391 17.5271C1.32251 11.1037 5.20727 4.57388 11.6308 2.94248C17.4215 1.47179 23.2986 4.48403 25.5955 9.79784ZM26.0248 12.2206C25.9685 12.0873 25.9006 11.9715 25.8212 11.8733C25.6889 11.7014 25.5345 11.5854 25.358 11.5254C25.1806 11.4617 24.9878 11.4562 24.7796 11.5091C24.5751 11.5611 24.4083 11.6578 24.279 11.7995C24.1526 11.9364 24.0703 12.1124 24.0323 12.3276C24.0116 12.4513 24.0088 12.585 24.0238 12.7288L26.0248 12.2206ZM24.3302 14.0233L26.535 13.4633C26.5602 13.7312 26.5762 13.9985 26.5833 14.2647C26.5684 14.3051 26.5341 14.3731 26.4803 14.4686C26.4239 14.5636 26.3361 14.6625 26.2171 14.7652C26.0972 14.8642 25.9331 14.9401 25.7249 14.993C25.4977 15.0507 25.2902 15.051 25.1024 14.9939C24.9174 14.9321 24.7574 14.8176 24.6222 14.6504C24.4955 14.4858 24.3982 14.2767 24.3302 14.0233ZM14.2192 10.7272L16.3005 18.9221L22.0477 17.4625L21.5631 15.5543L18.2238 16.4024L16.6271 10.1156L14.2192 10.7272Z" fill="#CB1B45"/>
</svg>
